<?xml version="1.0" encoding="UTF-8"?>
<svg xmlns="http://www.w3.org/2000/svg" xmlns:xlink="http://www.w3.org/1999/xlink" viewBox="0 0 30 30" width="30px" height="30px">
<g id="surface5301545">
<path style="fill-rule:nonzero;fill:rgb(100%,100%,100%);fill-opacity:1;stroke-width:10;stroke-linecap:butt;stroke-linejoin:round;stroke:rgb(0%,0%,0%);stroke-opacity:1;stroke-miterlimit:10;" d="M 146.495481 116.336751 C 135.209519 138.602376 112.166364 153.893795 85.494737 153.893795 C 47.725639 153.893795 17.095679 123.263834 17.095679 85.494737 C 17.095679 55.100391 36.95803 29.347663 64.407187 20.441413 C 59.718447 29.724647 57.008873 40.185957 57.008873 51.306988 C 57.008873 89.076086 87.615272 119.706046 125.407931 119.706046 C 132.759122 119.706046 139.851136 118.504409 146.495481 116.336751 Z M 146.495481 116.336751 " transform="matrix(0.165789,0,0,0.165789,0.829779,0.829779)"/>
<path style=" stroke:none;fill-rule:nonzero;fill:rgb(100%,100%,100%);fill-opacity:1;" d="M 21.621094 20.675781 C 15.355469 20.675781 10.28125 15.597656 10.28125 9.335938 C 10.28125 7.492188 10.730469 5.757812 11.507812 4.21875 C 6.957031 5.695312 3.664062 9.964844 3.664062 15.003906 C 3.664062 21.265625 8.742188 26.34375 15.003906 26.34375 C 19.425781 26.34375 23.246094 23.808594 25.117188 20.117188 C 24.015625 20.476562 22.839844 20.675781 21.621094 20.675781 Z M 21.621094 20.675781 "/>
</g>
</svg>
