<?xml version="1.0" encoding="UTF-8"?>
<svg xmlns="http://www.w3.org/2000/svg" xmlns:xlink="http://www.w3.org/1999/xlink" viewBox="0 0 24 24" width="24px" height="24px">
<g id="surface5705124">
<path style=" stroke:none;fill-rule:nonzero;fill:rgb(80.000001%,80.000001%,80.000001%);fill-opacity:1;" d="M 17.863281 11.65625 L 6.863281 0.15625 C 6.71875 0.0078125 6.503906 -0.0390625 6.3125 0.0351562 C 6.125 0.113281 6 0.296875 6 0.5 L 6 2.5 C 6 2.628906 6.050781 2.75 6.136719 2.84375 L 14.8125 12 L 6.136719 21.15625 C 6.050781 21.25 6 21.371094 6 21.5 L 6 23.5 C 6 23.703125 6.125 23.886719 6.3125 23.964844 C 6.375 23.988281 6.4375 24 6.5 24 C 6.632812 24 6.765625 23.945312 6.863281 23.847656 L 17.863281 12.347656 C 18.046875 12.152344 18.046875 11.847656 17.863281 11.65625 Z M 17.863281 11.65625 "/>
</g>
</svg>
