<svg fill="#000000" xmlns="http://www.w3.org/2000/svg"  viewBox="0 0 50 50" width="50px" height="50px"><path d="M 24.90625 -0.03125 C 24.863281 -0.0234375 24.820313 -0.0117188 24.78125 0 C 24.316406 0.105469 23.988281 0.523438 24 1 L 24 17.0625 L 18.8125 11.90625 C 18.605469 11.683594 18.304688 11.570313 18 11.59375 C 17.609375 11.632813 17.277344 11.894531 17.152344 12.261719 C 17.023438 12.632813 17.125 13.042969 17.40625 13.3125 L 24.28125 20.21875 L 25 20.90625 L 25.71875 20.21875 L 32.59375 13.3125 C 32.890625 13.070313 33.027344 12.683594 32.941406 12.308594 C 32.855469 11.9375 32.5625 11.644531 32.191406 11.558594 C 31.816406 11.472656 31.429688 11.609375 31.1875 11.90625 L 26 17.0625 L 26 1 C 26.011719 0.710938 25.894531 0.433594 25.6875 0.238281 C 25.476563 0.0390625 25.191406 -0.0585938 24.90625 -0.03125 Z M 24.90625 27.96875 C 24.863281 27.976563 24.820313 27.988281 24.78125 28 C 24.316406 28.105469 23.988281 28.523438 24 29 L 24 35 C 23.996094 35.359375 24.183594 35.695313 24.496094 35.878906 C 24.808594 36.058594 25.191406 36.058594 25.503906 35.878906 C 25.816406 35.695313 26.003906 35.359375 26 35 L 26 29 C 26.011719 28.710938 25.894531 28.433594 25.6875 28.238281 C 25.476563 28.039063 25.191406 27.941406 24.90625 27.96875 Z M 10.6875 33.875 C 10.3125 33.941406 10.011719 34.214844 9.90625 34.578125 C 9.800781 34.945313 9.910156 35.335938 10.1875 35.59375 L 14.40625 39.8125 C 14.648438 40.109375 15.035156 40.246094 15.410156 40.160156 C 15.78125 40.074219 16.074219 39.78125 16.160156 39.410156 C 16.246094 39.035156 16.109375 38.648438 15.8125 38.40625 L 11.59375 34.1875 C 11.40625 33.988281 11.148438 33.878906 10.875 33.875 C 10.84375 33.875 10.8125 33.875 10.78125 33.875 C 10.75 33.875 10.71875 33.875 10.6875 33.875 Z M 39 33.875 C 38.773438 33.90625 38.5625 34.019531 38.40625 34.1875 L 34.1875 38.40625 C 33.890625 38.648438 33.753906 39.035156 33.839844 39.410156 C 33.925781 39.78125 34.21875 40.074219 34.589844 40.160156 C 34.964844 40.246094 35.351563 40.109375 35.59375 39.8125 L 39.8125 35.59375 C 40.109375 35.308594 40.199219 34.867188 40.039063 34.488281 C 39.882813 34.109375 39.503906 33.867188 39.09375 33.875 C 39.0625 33.875 39.03125 33.875 39 33.875 Z M 24.90625 39 C 24.875 39.007813 24.84375 39.019531 24.8125 39.03125 C 24.75 39.035156 24.6875 39.046875 24.625 39.0625 C 24.613281 39.074219 24.605469 39.082031 24.59375 39.09375 C 19.59375 39.304688 15.550781 43.085938 15.0625 48 L 1 48 C 0.96875 48 0.9375 48 0.90625 48 C 0.355469 48.027344 -0.0742188 48.496094 -0.046875 49.046875 C -0.0195313 49.597656 0.449219 50.027344 1 50 L 49 50 C 49.09375 50.003906 49.191406 49.992188 49.28125 49.96875 C 49.445313 49.925781 49.597656 49.839844 49.71875 49.71875 C 49.742188 49.6875 49.761719 49.65625 49.78125 49.625 C 49.804688 49.605469 49.824219 49.585938 49.84375 49.5625 C 49.867188 49.53125 49.886719 49.5 49.90625 49.46875 C 49.960938 49.351563 49.992188 49.222656 50 49.09375 C 50.007813 49.019531 50.007813 48.949219 50 48.875 C 49.984375 48.71875 49.929688 48.570313 49.84375 48.4375 C 49.824219 48.40625 49.804688 48.375 49.78125 48.34375 C 49.75 48.320313 49.71875 48.300781 49.6875 48.28125 C 49.640625 48.234375 49.585938 48.191406 49.53125 48.15625 C 49.417969 48.078125 49.289063 48.027344 49.15625 48 C 49.105469 47.996094 49.050781 47.996094 49 48 L 34.9375 48 C 34.453125 43.105469 30.441406 39.335938 25.46875 39.09375 C 25.433594 39.09375 25.410156 39.0625 25.375 39.0625 C 25.273438 39.023438 25.167969 39.003906 25.0625 39 C 25.042969 39 25.019531 39 25 39 C 24.96875 39 24.9375 39 24.90625 39 Z M 24.9375 41 C 24.957031 41 24.980469 41 25 41 C 25.03125 41 25.0625 41 25.09375 41 C 29.175781 41.046875 32.457031 44.050781 32.9375 48 L 17.0625 48 C 17.546875 44.042969 20.84375 41.03125 24.9375 41 Z"/></svg>